<svg xmlns="http://www.w3.org/2000/svg" width="512" height="512" viewBox="0 0 512 512">
  <rect width="512" height="512" fill="#000000" rx="128"/>
  <path d="M256 107c-82.475 0-149 66.525-149 149s66.525 149 149 149 149-66.525 149-149S338.475 107 256 107zm67.088 216.088c-2.73 2.73-6.314 4.096-9.899 4.096s-7.168-1.365-9.899-4.096L256 275.797l-47.291 47.291c-2.73 2.73-6.314 4.096-9.899 4.096s-7.168-1.365-9.899-4.096c-5.461-5.461-5.461-14.336 0-19.797L236.203 256l-47.291-47.291c-5.461-5.461-5.461-14.336 0-19.797 5.461-5.461 14.336-5.461 19.797 0L256 236.203l47.291-47.291c5.461-5.461 14.336-5.461 19.797 0 5.461 5.461 5.461 14.336 0 19.797L275.797 256l47.291 47.291c5.461 5.461 5.461 14.336 0 19.797z" fill="#ffffff"/>
</svg>