<svg xmlns="http://www.w3.org/2000/svg" width="192" height="192" viewBox="0 0 192 192">
  <rect width="192" height="192" fill="#000000" rx="48"/>
  <path d="M96 40c-30.928 0-56 25.072-56 56s25.072 56 56 56 56-25.072 56-56S126.928 40 96 40zm25.176 81.176c-1.024 1.024-2.368 1.536-3.712 1.536s-2.688-.512-3.712-1.536L96 103.424l-17.752 17.752c-1.024 1.024-2.368 1.536-3.712 1.536s-2.688-.512-3.712-1.536c-2.048-2.048-2.048-5.376 0-7.424L88.576 96 70.824 78.248c-2.048-2.048-2.048-5.376 0-7.424 2.048-2.048 5.376-2.048 7.424 0L96 88.576l17.752-17.752c2.048-2.048 5.376-2.048 7.424 0 2.048 2.048 2.048 5.376 0 7.424L103.424 96l17.752 17.752c2.048 2.048 2.048 5.376 0 7.424z" fill="#ffffff"/>
</svg>